<svg width="28" height="28" viewBox="0 0 28 28" fill="none" xmlns="http://www.w3.org/2000/svg">
<path d="M14 4C8.477 4 4 8.477 4 14C4 15.272 4.26199 16.561 4.71899 17.719L5.5 19.312C5.995 20.341 5.82101 21.311 5.15601 22.5C4.78901 23.158 5.247 23.951 6 23.969C7.017 23.992 8.707 23.668 10 23.188C11.194 23.739 12.668 24 14 24C19.523 24 24 19.523 24 14C24 8.477 19.523 4 14 4ZM14 6C18.418 6 22 9.582 22 14C22 18.418 18.418 22 14 22C12.85 22 11.405 21.704 10.5 21.219C10.232 21.075 9.904 21.037 9.625 21.156C8.987 21.429 8.34299 21.634 7.59399 21.781C7.89399 20.73 7.80501 19.527 7.28101 18.438L6.53101 16.906C6.19801 16.054 6 15.02 6 14C6 9.582 9.582 6 14 6ZM10 13C9.448 13 9 13.448 9 14C9 14.552 9.448 15 10 15C10.552 15 11 14.552 11 14C11 13.448 10.552 13 10 13ZM14 13C13.448 13 13 13.448 13 14C13 14.552 13.448 15 14 15C14.552 15 15 14.552 15 14C15 13.448 14.552 13 14 13ZM18 13C17.448 13 17 13.448 17 14C17 14.552 17.448 15 18 15C18.552 15 19 14.552 19 14C19 13.448 18.552 13 18 13Z" fill="black"/>
</svg>
