<svg width="162" height="48" viewBox="0 0 162 48" fill="none" xmlns="http://www.w3.org/2000/svg">
<rect x="24.3581" y="14.3392" width="1.82369" height="19.3514" fill="white" stroke="white" stroke-width="0.303949"/>
<rect x="37.9362" y="23.2552" width="1.82369" height="28.4748" transform="rotate(90 37.9362 23.2552)" fill="white" stroke="white" stroke-width="0.303949"/>
<rect x="19.568" y="35.7453" width="1.82369" height="34.8828" transform="rotate(-150 19.568 35.7453)" fill="white" stroke="white" stroke-width="0.303949"/>
<rect x="32.8015" y="35.2452" width="1.82369" height="23.1055" transform="rotate(150 32.8015 35.2452)" fill="white" stroke="white" stroke-width="0.303949"/>
<rect x="9.13365" y="34.4308" width="1.82369" height="28.2804" transform="rotate(-120 9.13365 34.4308)" fill="white" stroke="white" stroke-width="0.303949"/>
<rect x="12.5597" y="17.8804" width="1.82369" height="28.185" transform="rotate(-60 12.5597 17.8804)" fill="white" stroke="white" stroke-width="0.303949"/>
<path d="M51.7256 31.2812C50.4072 31.2812 49.3232 31.1904 48.4736 31.0088C47.624 30.833 46.959 30.5049 46.4785 30.0244C46.0039 29.5439 45.6699 28.8525 45.4766 27.9502C45.2891 27.0479 45.1953 25.873 45.1953 24.4258V17.5H46.8828V24.4258C46.8828 25.4219 46.918 26.248 46.9883 26.9043C47.0586 27.5605 47.1904 28.085 47.3838 28.4775C47.5771 28.8701 47.8525 29.1631 48.21 29.3564C48.5732 29.5498 49.042 29.6758 49.6162 29.7344C50.1904 29.793 50.8936 29.8223 51.7256 29.8223H54.9072C55.7451 29.8223 56.4482 29.793 57.0166 29.7344C57.5908 29.6758 58.0566 29.5498 58.4141 29.3564C58.7773 29.1631 59.0557 28.8701 59.249 28.4775C59.4424 28.085 59.5742 27.5605 59.6445 26.9043C59.7148 26.248 59.75 25.4219 59.75 24.4258V17.5H61.4375V24.4258C61.4375 25.873 61.3408 27.0479 61.1475 27.9502C60.96 28.8525 60.626 29.5439 60.1455 30.0244C59.6709 30.5049 59.0088 30.833 58.1592 31.0088C57.3096 31.1904 56.2256 31.2812 54.9072 31.2812H51.7256ZM69.0453 31L62.4096 17.5H64.352L70.1703 29.5674L75.6547 17.5H77.6234L83.1078 29.5674L88.3637 17.5H90.3061L84.2328 31H81.9828L76.6391 19.1963L71.2953 31H69.0453ZM86.7324 31L94.6074 17.5H96.8574L104.732 31H102.764L101.076 27.9062H90.3887L88.7012 31H86.7324ZM91.2324 26.5H100.232L95.7324 18.625L91.2324 26.5ZM106.082 31V17.5H107.77V31H106.082Z" fill="white"/>
<path d="M116.7 15.4375V16.0913H115.367V27.3267H116.7V27.9805H114.611V15.4375H116.7ZM118.239 16.7578H121.241C121.88 16.7578 122.434 16.8615 122.904 17.0688C123.374 17.2762 123.736 17.583 123.99 17.9893C124.248 18.3913 124.377 18.8864 124.377 19.4746C124.377 19.9105 124.284 20.3062 124.097 20.6616C123.915 21.0171 123.664 21.3154 123.342 21.5566C123.02 21.7936 122.648 21.9565 122.225 22.0454L121.952 22.147H118.746L118.734 21.4805H121.419C121.901 21.4805 122.303 21.3874 122.625 21.2012C122.946 21.015 123.188 20.7695 123.348 20.4648C123.513 20.1559 123.596 19.8258 123.596 19.4746C123.596 19.0557 123.505 18.6938 123.323 18.3892C123.145 18.0802 122.881 17.8433 122.53 17.6782C122.178 17.5132 121.749 17.4307 121.241 17.4307H119.019V26H118.239V16.7578ZM123.945 26L121.552 21.8677L122.39 21.8613L124.777 25.9175V26H123.945ZM132.657 25.3335V26H127.458V25.3335H132.657ZM127.693 16.7578V26H126.912V16.7578H127.693ZM132.009 20.9028V21.5693H127.458V20.9028H132.009ZM132.625 16.7578V17.4307H127.458V16.7578H132.625ZM139.934 23.7275C139.934 23.4736 139.892 23.2472 139.807 23.0483C139.722 22.8494 139.583 22.6717 139.388 22.5151C139.198 22.3543 138.94 22.2062 138.614 22.0708C138.292 21.9312 137.89 21.7936 137.408 21.6582C136.946 21.527 136.53 21.3831 136.157 21.2266C135.785 21.07 135.465 20.8901 135.199 20.687C134.936 20.4839 134.735 20.2469 134.596 19.9761C134.456 19.701 134.386 19.3815 134.386 19.0176C134.386 18.6621 134.462 18.3384 134.615 18.0464C134.767 17.7544 134.981 17.5026 135.256 17.291C135.535 17.0794 135.863 16.9165 136.24 16.8022C136.621 16.688 137.037 16.6309 137.49 16.6309C138.138 16.6309 138.696 16.7536 139.166 16.999C139.64 17.2445 140.006 17.5767 140.264 17.9956C140.527 18.4103 140.658 18.8758 140.658 19.3921H139.877C139.877 18.9901 139.782 18.6325 139.591 18.3193C139.405 18.002 139.134 17.7544 138.779 17.5767C138.428 17.3947 137.998 17.3037 137.49 17.3037C136.982 17.3037 136.555 17.382 136.208 17.5386C135.865 17.6909 135.605 17.8962 135.427 18.1543C135.254 18.4082 135.167 18.6917 135.167 19.0049C135.167 19.2249 135.209 19.4281 135.294 19.6143C135.379 19.7962 135.516 19.9676 135.707 20.1284C135.901 20.285 136.157 20.4331 136.475 20.5728C136.792 20.7082 137.183 20.8372 137.649 20.96C138.14 21.0954 138.576 21.2456 138.957 21.4106C139.337 21.5757 139.659 21.7661 139.921 21.9819C140.184 22.1935 140.383 22.4411 140.518 22.7246C140.653 23.0081 140.721 23.3382 140.721 23.7148C140.721 24.0915 140.641 24.43 140.48 24.7305C140.323 25.0267 140.101 25.2785 139.813 25.4858C139.53 25.6932 139.194 25.8519 138.804 25.9619C138.419 26.0719 137.998 26.127 137.541 26.127C137.131 26.127 136.722 26.0741 136.316 25.9683C135.91 25.8625 135.537 25.6995 135.199 25.4795C134.864 25.2552 134.596 24.9674 134.393 24.6162C134.194 24.265 134.094 23.846 134.094 23.3594H134.869C134.869 23.7487 134.947 24.0767 135.103 24.3433C135.26 24.6099 135.467 24.8257 135.726 24.9907C135.988 25.1558 136.276 25.2764 136.589 25.3525C136.906 25.4245 137.224 25.4604 137.541 25.4604C138.028 25.4604 138.449 25.3885 138.804 25.2446C139.164 25.1007 139.441 24.8997 139.636 24.6416C139.835 24.3792 139.934 24.0745 139.934 23.7275ZM145.897 16.7578V26H145.123V16.7578H145.897ZM149.065 16.7578V17.4307H141.962V16.7578H149.065ZM149.791 16.0913V15.4375H151.886V27.9805H149.791V27.3267H151.124V16.0913H149.791Z" fill="white"/>
</svg>
