<svg width="366" height="100" viewBox="0 0 366 100" fill="none" xmlns="http://www.w3.org/2000/svg">
<g clip-path="url(#clip0_133_7838)">
<path d="M0 52L0 12C0 5.37258 5.37258 0 12 0H52H354C360.627 0 366 5.37258 366 12V88C366 94.6274 360.627 100 354 100H12C5.37259 100 0 94.6274 0 88L0 52Z" fill="#424242"/>
<path d="M173.314 26.8432V4.72662H183.558V26.9657V30.1519L185.152 27.3926L235.512 -59.8338L244.384 -54.7114L193.946 32.6504L192.309 35.4845L195.122 33.8109L273.256 -12.6875L278.379 -3.81543L199.278 43.2409L196.61 44.8283H199.715H326.146V55.0732H200.751H197.565L200.324 56.6662L249.278 84.9294L244.155 93.8017L195.881 65.9303L193.121 64.3372L194.714 67.0965L220.746 112.184L211.874 117.307L185.152 71.0229L183.558 68.2636V71.4498V93.4674H173.314V71.5723V68.3861L171.721 71.1454L146.405 114.994L137.532 109.871L162.77 66.1584L164.363 63.3991L161.604 64.9922L87.5508 107.747L78.5221 100.614L155.531 56.6684L158.327 55.0732H155.108H39.8537V50V44.8283L156.145 44.8283H159.331L156.572 43.2352L107.035 14.6352L112.157 5.76287L162.373 34.7547L165.156 36.3616L163.537 33.5853L140.978 -5.10368L149.85 -10.2261L171.722 27.2733L173.314 30.0014V26.8432Z" stroke="white" stroke-width="1.70747"/>
</g>
<defs>
<clipPath id="clip0_133_7838">
<rect width="366" height="100" fill="white"/>
</clipPath>
</defs>
</svg>
